<svg version="1.1" xmlns="http://www.w3.org/2000/svg" xmlns:xlink="http://www.w3.org/1999/xlink" width="756" height="328"><defs/><g><g transform="translate(-278,-214) scale(1,1)"><rect fill="#C0C0C0" stroke="none" x="593" y="231" width="166" height="44" opacity="0.2"/></g><g transform="translate(-278,-214) scale(1,1)"><rect fill="#ffffff" stroke="none" x="586" y="224" width="166" height="44"/></g><g transform="translate(-278,-214) scale(1,1)"><path fill="none" stroke="#000000" d="M 586 224 L 752 224 L 752 268 L 586 268 L 586 224 Z Z" stroke-miterlimit="10"/></g><g transform="translate(-278,-214) scale(1,1)"><rect fill="#ffffff" stroke="none" x="576" y="231" width="20" height="10"/></g><g transform="translate(-278,-214) scale(1,1)"><path fill="none" stroke="#000000" d="M 576 231 L 596 231 L 596 241 L 576 241 L 576 231 Z Z" stroke-miterlimit="10"/></g><g transform="translate(-278,-214) scale(1,1)"><rect fill="#ffffff" stroke="none" x="576" y="251" width="20" height="10"/></g><g transform="translate(-278,-214) scale(1,1)"><path fill="none" stroke="#000000" d="M 576 251 L 596 251 L 596 261 L 576 261 L 576 251 Z Z" stroke-miterlimit="10"/></g><g transform="translate(-278,-214) scale(1,1)"><g><path fill="none" stroke="none"/><text fill="#000000" stroke="none" font-family="Arial" font-size="13px" font-style="normal" font-weight="bold" text-decoration="none" x="621.254150390625" y="243.5">AlgorithmInterface</text></g></g><g transform="translate(-278,-214) scale(1,1)"><rect fill="#C0C0C0" stroke="none" x="593" y="495" width="166" height="44" opacity="0.2"/></g><g transform="translate(-278,-214) scale(1,1)"><rect fill="#ffffff" stroke="none" x="586" y="488" width="166" height="44"/></g><g transform="translate(-278,-214) scale(1,1)"><path fill="none" stroke="#000000" d="M 586 488 L 752 488 L 752 532 L 586 532 L 586 488 Z Z" stroke-miterlimit="10"/></g><g transform="translate(-278,-214) scale(1,1)"><rect fill="#ffffff" stroke="none" x="576" y="495" width="20" height="10"/></g><g transform="translate(-278,-214) scale(1,1)"><path fill="none" stroke="#000000" d="M 576 495 L 596 495 L 596 505 L 576 505 L 576 495 Z Z" stroke-miterlimit="10"/></g><g transform="translate(-278,-214) scale(1,1)"><rect fill="#ffffff" stroke="none" x="576" y="515" width="20" height="10"/></g><g transform="translate(-278,-214) scale(1,1)"><path fill="none" stroke="#000000" d="M 576 515 L 596 515 L 596 525 L 576 525 L 576 515 Z Z" stroke-miterlimit="10"/></g><g transform="translate(-278,-214) scale(1,1)"><g><path fill="none" stroke="none"/><text fill="#000000" stroke="none" font-family="Arial" font-size="13px" font-style="normal" font-weight="bold" text-decoration="none" x="643.661376953125" y="507.5">CsvParser</text></g></g><g transform="translate(-278,-214) scale(1,1)"><rect fill="#C0C0C0" stroke="none" x="305" y="415" width="166" height="44" opacity="0.2"/></g><g transform="translate(-278,-214) scale(1,1)"><rect fill="#ffffff" stroke="none" x="298" y="408" width="166" height="44"/></g><g transform="translate(-278,-214) scale(1,1)"><path fill="none" stroke="#000000" d="M 298 408 L 464 408 L 464 452 L 298 452 L 298 408 Z Z" stroke-miterlimit="10"/></g><g transform="translate(-278,-214) scale(1,1)"><rect fill="#ffffff" stroke="none" x="288" y="415" width="20" height="10"/></g><g transform="translate(-278,-214) scale(1,1)"><path fill="none" stroke="#000000" d="M 288 415 L 308 415 L 308 425 L 288 425 L 288 415 Z Z" stroke-miterlimit="10"/></g><g transform="translate(-278,-214) scale(1,1)"><rect fill="#ffffff" stroke="none" x="288" y="435" width="20" height="10"/></g><g transform="translate(-278,-214) scale(1,1)"><path fill="none" stroke="#000000" d="M 288 435 L 308 435 L 308 445 L 288 445 L 288 435 Z Z" stroke-miterlimit="10"/></g><g transform="translate(-278,-214) scale(1,1)"><g><path fill="none" stroke="none"/><text fill="#000000" stroke="none" font-family="Arial" font-size="13px" font-style="normal" font-weight="bold" text-decoration="none" x="342.648681640625" y="427.5">HydrologyCore</text></g></g><g transform="translate(-278,-214) scale(1,1)"><rect fill="#C0C0C0" stroke="none" x="865" y="415" width="166" height="44" opacity="0.2"/></g><g transform="translate(-278,-214) scale(1,1)"><rect fill="#ffffff" stroke="none" x="858" y="408" width="166" height="44"/></g><g transform="translate(-278,-214) scale(1,1)"><path fill="none" stroke="#000000" d="M 858 408 L 1024 408 L 1024 452 L 858 452 L 858 408 Z Z" stroke-miterlimit="10"/></g><g transform="translate(-278,-214) scale(1,1)"><rect fill="#ffffff" stroke="none" x="848" y="415" width="20" height="10"/></g><g transform="translate(-278,-214) scale(1,1)"><path fill="none" stroke="#000000" d="M 848 415 L 868 415 L 868 425 L 848 425 L 848 415 Z Z" stroke-miterlimit="10"/></g><g transform="translate(-278,-214) scale(1,1)"><rect fill="#ffffff" stroke="none" x="848" y="435" width="20" height="10"/></g><g transform="translate(-278,-214) scale(1,1)"><path fill="none" stroke="#000000" d="M 848 435 L 868 435 L 868 445 L 848 445 L 848 435 Z Z" stroke-miterlimit="10"/></g><g transform="translate(-278,-214) scale(1,1)"><g><path fill="none" stroke="none"/><text fill="#000000" stroke="none" font-family="Arial" font-size="13px" font-style="normal" font-weight="bold" text-decoration="none" x="892.892333984375" y="427.5">HydrologyDesktop</text></g></g><g transform="translate(-278,-214) scale(1,1)"><path fill="none" stroke="#000000" d="M 847 430 L 465 430" stroke-miterlimit="10" stroke-dasharray="3"/></g><g transform="translate(-278,-214) scale(1,1)"><path fill="none" stroke="#000000" d="M 475.16267485762415 425.790482243984 L 465 430 L 475.16267485762415 434.209517756016" stroke-miterlimit="10"/></g><g transform="translate(-278,-214) scale(1,1)"><path fill="none" stroke="#000000" d="M 944 452 L 944 510 L 752 510" stroke-miterlimit="10" stroke-dasharray="3"/></g><g transform="translate(-278,-214) scale(1,1)"><path fill="none" stroke="#000000" d="M 762.1626748576241 505.790482243984 L 752 510 L 762.1626748576241 514.209517756016" stroke-miterlimit="10"/></g><g transform="translate(-278,-214) scale(1,1)"><path fill="none" stroke="#000000" d="M 384 452 L 384 510 L 576 510" stroke-miterlimit="10" stroke-dasharray="3"/></g><g transform="translate(-278,-214) scale(1,1)"><path fill="none" stroke="#000000" d="M 565.8373251423759 514.209517756016 L 576 510 L 565.8373251423758 505.790482243984" stroke-miterlimit="10"/></g><g transform="translate(-278,-214) scale(1,1)"><rect fill="#C0C0C0" stroke="none" x="489" y="343" width="166" height="44" opacity="0.2"/></g><g transform="translate(-278,-214) scale(1,1)"><rect fill="#ffffff" stroke="none" x="482" y="336" width="166" height="44"/></g><g transform="translate(-278,-214) scale(1,1)"><path fill="none" stroke="#000000" d="M 482 336 L 648 336 L 648 380 L 482 380 L 482 336 Z Z" stroke-miterlimit="10"/></g><g transform="translate(-278,-214) scale(1,1)"><rect fill="#ffffff" stroke="none" x="472" y="343" width="20" height="10"/></g><g transform="translate(-278,-214) scale(1,1)"><path fill="none" stroke="#000000" d="M 472 343 L 492 343 L 492 353 L 472 353 L 472 343 Z Z" stroke-miterlimit="10"/></g><g transform="translate(-278,-214) scale(1,1)"><rect fill="#ffffff" stroke="none" x="472" y="363" width="20" height="10"/></g><g transform="translate(-278,-214) scale(1,1)"><path fill="none" stroke="#000000" d="M 472 363 L 492 363 L 492 373 L 472 373 L 472 363 Z Z" stroke-miterlimit="10"/></g><g transform="translate(-278,-214) scale(1,1)"><g><path fill="none" stroke="none"/><text fill="#000000" stroke="none" font-family="Arial" font-size="13px" font-style="normal" font-weight="bold" text-decoration="none" x="540.724609375" y="355.5">Sequence</text></g></g><g transform="translate(-278,-214) scale(1,1)"><rect fill="#C0C0C0" stroke="none" x="713" y="343" width="166" height="44" opacity="0.2"/></g><g transform="translate(-278,-214) scale(1,1)"><rect fill="#ffffff" stroke="none" x="706" y="336" width="166" height="44"/></g><g transform="translate(-278,-214) scale(1,1)"><path fill="none" stroke="#000000" d="M 706 336 L 872 336 L 872 380 L 706 380 L 706 336 Z Z" stroke-miterlimit="10"/></g><g transform="translate(-278,-214) scale(1,1)"><rect fill="#ffffff" stroke="none" x="696" y="343" width="20" height="10"/></g><g transform="translate(-278,-214) scale(1,1)"><path fill="none" stroke="#000000" d="M 696 343 L 716 343 L 716 353 L 696 353 L 696 343 Z Z" stroke-miterlimit="10"/></g><g transform="translate(-278,-214) scale(1,1)"><rect fill="#ffffff" stroke="none" x="696" y="363" width="20" height="10"/></g><g transform="translate(-278,-214) scale(1,1)"><path fill="none" stroke="#000000" d="M 696 363 L 716 363 L 716 373 L 696 373 L 696 363 Z Z" stroke-miterlimit="10"/></g><g transform="translate(-278,-214) scale(1,1)"><g><path fill="none" stroke="none"/><text fill="#000000" stroke="none" font-family="Arial" font-size="13px" font-style="normal" font-weight="bold" text-decoration="none" x="731.491455078125" y="355.5">RepresentationCheck</text></g></g><g transform="translate(-278,-214) scale(1,1)"><path fill="none" stroke="#000000" d="M 568 336 L 568 312 L 672 312 L 672 268" stroke-miterlimit="10" stroke-dasharray="3"/></g><g transform="translate(-278,-214) scale(1,1)"><path fill="#FFFFFF" stroke="none" d="M 680.419035512032 288.3253497152483 L 672 268 L 663.580964487968 288.3253497152483"/></g><g transform="translate(-278,-214) scale(1,1)"><path fill="none" stroke="#000000" d="M 680.419035512032 288.3253497152483 L 672 268 L 663.580964487968 288.3253497152483 L 680.419035512032 288.3253497152483" stroke-miterlimit="10"/></g><g transform="translate(-278,-214) scale(1,1)"><path fill="none" stroke="#000000" d="M 792 336 L 792 312 L 672 312 L 672 268" stroke-miterlimit="10" stroke-dasharray="3"/></g><g transform="translate(-278,-214) scale(1,1)"><path fill="#FFFFFF" stroke="none" d="M 680.419035512032 288.3253497152483 L 672 268 L 663.580964487968 288.3253497152483"/></g><g transform="translate(-278,-214) scale(1,1)"><path fill="none" stroke="#000000" d="M 680.419035512032 288.3253497152483 L 672 268 L 663.580964487968 288.3253497152483 L 680.419035512032 288.3253497152483" stroke-miterlimit="10"/></g><g transform="translate(-278,-214) scale(1,1)"><path fill="none" stroke="#000000" d="M 944 408 L 944 248 L 752 248" stroke-miterlimit="10" stroke-dasharray="3"/></g><g transform="translate(-278,-214) scale(1,1)"><path fill="none" stroke="#000000" d="M 762.1626748576241 243.790482243984 L 752 248 L 762.1626748576241 252.209517756016" stroke-miterlimit="10"/></g><g transform="translate(-278,-214) scale(1,1)"><path fill="none" stroke="#000000" d="M 384 408 L 384 248 L 576 248" stroke-miterlimit="10" stroke-dasharray="3"/></g><g transform="translate(-278,-214) scale(1,1)"><path fill="none" stroke="#000000" d="M 565.8373251423759 252.209517756016 L 576 248 L 565.8373251423758 243.790482243984" stroke-miterlimit="10"/></g></g></svg>