<svg version="1.1" xmlns="http://www.w3.org/2000/svg" xmlns:xlink="http://www.w3.org/1999/xlink" width="871" height="710"><defs/><g><g transform="translate(-14,-6) scale(1,1)"><path fill="#ffffff" stroke="none" d="M 74.32365696022727 81.68 C 74.32365696022727 76.886167936 78.20949928517273 73 83.0029296875 73 C 87.79636008982727 73 91.68220241477273 76.886167936 91.68220241477273 81.68 C 91.68220241477273 86.473832064 87.79636008982727 90.36 83.0029296875 90.36 C 78.20949928517273 90.36 74.32365696022727 86.473832064 74.32365696022727 81.68 Z"/></g><g transform="translate(-14,-6) scale(1,1)"><path fill="none" stroke="#000000" d="M 74.32365696022727 81.68 C 74.32365696022727 76.886167936 78.20949928517273 73 83.0029296875 73 C 87.79636008982727 73 91.68220241477273 76.886167936 91.68220241477273 81.68 C 91.68220241477273 86.473832064 87.79636008982727 90.36 83.0029296875 90.36 C 78.20949928517273 90.36 74.32365696022727 86.473832064 74.32365696022727 81.68 Z" stroke-miterlimit="10"/></g><g transform="translate(-14,-6) scale(1,1)"><path fill="none" stroke="#000000" d="M 83.0029296875 90.36 L 83.0029296875 107.64" stroke-miterlimit="10"/></g><g transform="translate(-14,-6) scale(1,1)"><path fill="none" stroke="#000000" d="M 73.81311150568182 96.84 L 92.19274786931818 96.84" stroke-miterlimit="10"/></g><g transform="translate(-14,-6) scale(1,1)"><path fill="none" stroke="#000000" d="M 83.0029296875 107.64 L 70.23929332386363 125" stroke-miterlimit="10"/></g><g transform="translate(-14,-6) scale(1,1)"><path fill="none" stroke="#000000" d="M 83.0029296875 107.64 L 95.76656605113637 125" stroke-miterlimit="10"/></g><g transform="translate(-14,-6) scale(1,1)"><g><path fill="none" stroke="none"/><text fill="#000000" stroke="none" font-family="Arial" font-size="13px" font-style="normal" font-weight="bold" text-decoration="none" x="40.102294921875" y="145.5">Пользователь</text></g></g><g transform="translate(-14,-6) scale(1,1)"><path fill="#C0C0C0" stroke="none" d="M 183 43 C 183 31.954304 230.2339536 23 288.5 23 C 346.7660464 23 394 31.954304 394 43 C 394 54.045696 346.7660464 63 288.5 63 C 230.2339536 63 183 54.045696 183 43 Z" opacity="0.2"/></g><g transform="translate(-14,-6) scale(1,1)"><path fill="#ffffff" stroke="none" d="M 176 36 C 176 24.954304 223.2339536 16 281.5 16 C 339.7660464 16 387 24.954304 387 36 C 387 47.045696 339.7660464 56 281.5 56 C 223.2339536 56 176 47.045696 176 36 Z"/></g><g transform="translate(-14,-6) scale(1,1)"><path fill="none" stroke="#000000" d="M 176 36 C 176 24.954304 223.2339536 16 281.5 16 C 339.7660464 16 387 24.954304 387 36 C 387 47.045696 339.7660464 56 281.5 56 C 223.2339536 56 176 47.045696 176 36 Z" stroke-miterlimit="10"/></g><g transform="translate(-14,-6) scale(1,1)"><g><path fill="none" stroke="none"/><text fill="#000000" stroke="none" font-family="Arial" font-size="13px" font-style="normal" font-weight="bold" text-decoration="none" x="216.192138671875" y="43">Создать эксперимент</text></g></g><g transform="translate(-14,-6) scale(1,1)"><path fill="#C0C0C0" stroke="none" d="M 375 91 C 375 79.95430400000001 423.129384 71 482.5 71 C 541.870616 71 590 79.95430400000001 590 91 C 590 102.04569599999999 541.870616 111 482.5 111 C 423.129384 111 375 102.04569599999999 375 91 Z" opacity="0.2"/></g><g transform="translate(-14,-6) scale(1,1)"><path fill="#ffffff" stroke="none" d="M 368 84 C 368 72.95430400000001 416.129384 64 475.5 64 C 534.870616 64 583 72.95430400000001 583 84 C 583 95.04569599999999 534.870616 104 475.5 104 C 416.129384 104 368 95.04569599999999 368 84 Z"/></g><g transform="translate(-14,-6) scale(1,1)"><path fill="none" stroke="#000000" d="M 368 84 C 368 72.95430400000001 416.129384 64 475.5 64 C 534.870616 64 583 72.95430400000001 583 84 C 583 95.04569599999999 534.870616 104 475.5 104 C 416.129384 104 368 95.04569599999999 368 84 Z" stroke-miterlimit="10"/></g><g transform="translate(-14,-6) scale(1,1)"><g><path fill="none" stroke="none"/><text fill="#000000" stroke="none" font-family="Arial" font-size="13px" font-style="normal" font-weight="bold" text-decoration="none" x="409.7255859375" y="91">Открыть эксперимент</text></g></g><g transform="translate(-14,-6) scale(1,1)"><path fill="#C0C0C0" stroke="none" d="M 199 219 C 199 207.954304 251.3826784 199 316 199 C 380.61732159999997 199 433 207.954304 433 219 C 433 230.045696 380.61732159999997 239 316 239 C 251.3826784 239 199 230.045696 199 219 Z" opacity="0.2"/></g><g transform="translate(-14,-6) scale(1,1)"><path fill="#ffffff" stroke="none" d="M 192 212 C 192 200.954304 244.3826784 192 309 192 C 373.61732159999997 192 426 200.954304 426 212 C 426 223.045696 373.61732159999997 232 309 232 C 244.3826784 232 192 223.045696 192 212 Z"/></g><g transform="translate(-14,-6) scale(1,1)"><path fill="none" stroke="#000000" d="M 192 212 C 192 200.954304 244.3826784 192 309 192 C 373.61732159999997 192 426 200.954304 426 212 C 426 223.045696 373.61732159999997 232 309 232 C 244.3826784 232 192 223.045696 192 212 Z" stroke-miterlimit="10"/></g><g transform="translate(-14,-6) scale(1,1)"><g><path fill="none" stroke="none"/><text fill="#000000" stroke="none" font-family="Arial" font-size="13px" font-style="normal" font-weight="bold" text-decoration="none" x="236.379638671875" y="219">Сохранить эксперимент</text></g></g><g transform="translate(-14,-6) scale(1,1)"><path fill="#C0C0C0" stroke="none" d="M 31 291 C 31 279.954304 84.94968159999999 271 151.5 271 C 218.0503184 271 272 279.954304 272 291 C 272 302.045696 218.0503184 311 151.5 311 C 84.94968159999999 311 31 302.045696 31 291 Z" opacity="0.2"/></g><g transform="translate(-14,-6) scale(1,1)"><path fill="#ffffff" stroke="none" d="M 24 284 C 24 272.954304 77.94968159999999 264 144.5 264 C 211.0503184 264 265 272.954304 265 284 C 265 295.045696 211.0503184 304 144.5 304 C 77.94968159999999 304 24 295.045696 24 284 Z"/></g><g transform="translate(-14,-6) scale(1,1)"><path fill="none" stroke="#000000" d="M 24 284 C 24 272.954304 77.94968159999999 264 144.5 264 C 211.0503184 264 265 272.954304 265 284 C 265 295.045696 211.0503184 304 144.5 304 C 77.94968159999999 304 24 295.045696 24 284 Z" stroke-miterlimit="10"/></g><g transform="translate(-14,-6) scale(1,1)"><g><path fill="none" stroke="none"/><text fill="#000000" stroke="none" font-family="Arial" font-size="13px" font-style="normal" font-weight="bold" text-decoration="none" x="70.73388671875" y="291">Выполнить эксперимент</text></g></g><g transform="translate(-14,-6) scale(1,1)"><path fill="none" stroke="#000000" d="M 135 91 L 226 57" stroke-miterlimit="10"/></g><g transform="translate(-14,-6) scale(1,1)"><path fill="none" stroke="#000000" d="M 135 107 L 367 91" stroke-miterlimit="10"/></g><g transform="translate(-14,-6) scale(1,1)"><path fill="none" stroke="#000000" d="M 135 134 L 262 191" stroke-miterlimit="10"/></g><g transform="translate(-14,-6) scale(1,1)"><path fill="none" stroke="#000000" d="M 97 152 L 137 263" stroke-miterlimit="10"/></g><g transform="translate(-14,-6) scale(1,1)"><path fill="#C0C0C0" stroke="none" d="M 455 172 C 455 160.4020192 516.1131248 151 591.5 151 C 666.8868752 151 728 160.4020192 728 172 C 728 183.5979808 666.8868752 193 591.5 193 C 516.1131248 193 455 183.5979808 455 172 Z" opacity="0.2"/></g><g transform="translate(-14,-6) scale(1,1)"><path fill="#ffffff" stroke="none" d="M 448 165 C 448 153.4020192 509.1131248 144 584.5 144 C 659.8868752 144 721 153.4020192 721 165 C 721 176.5979808 659.8868752 186 584.5 186 C 509.1131248 186 448 176.5979808 448 165 Z"/></g><g transform="translate(-14,-6) scale(1,1)"><path fill="none" stroke="#000000" d="M 448 165 C 448 153.4020192 509.1131248 144 584.5 144 C 659.8868752 144 721 153.4020192 721 165 C 721 176.5979808 659.8868752 186 584.5 186 C 509.1131248 186 448 176.5979808 448 165 Z" stroke-miterlimit="10"/></g><g transform="translate(-14,-6) scale(1,1)"><g><path fill="none" stroke="none"/><text fill="#000000" stroke="none" font-family="Arial" font-size="13px" font-style="normal" font-weight="bold" text-decoration="none" x="498.78125" y="172">Редактировать эксперимент</text></g></g><g transform="translate(-14,-6) scale(1,1)"><path fill="none" stroke="#000000" d="M 135 117 L 447 150" stroke-miterlimit="10"/></g><g transform="translate(-14,-6) scale(1,1)"><path fill="#C0C0C0" stroke="none" d="M 607 264 C 607 254.6111584 653.7862384 247 711.5 247 C 769.2137616 247 816 254.6111584 816 264 C 816 273.3888416 769.2137616 281 711.5 281 C 653.7862384 281 607 273.3888416 607 264 Z" opacity="0.2"/></g><g transform="translate(-14,-6) scale(1,1)"><path fill="#ffffff" stroke="none" d="M 600 257 C 600 247.6111584 646.7862384 240 704.5 240 C 762.2137616 240 809 247.6111584 809 257 C 809 266.3888416 762.2137616 274 704.5 274 C 646.7862384 274 600 266.3888416 600 257 Z"/></g><g transform="translate(-14,-6) scale(1,1)"><path fill="none" stroke="#000000" d="M 600 257 C 600 247.6111584 646.7862384 240 704.5 240 C 762.2137616 240 809 247.6111584 809 257 C 809 266.3888416 762.2137616 274 704.5 274 C 646.7862384 274 600 266.3888416 600 257 Z" stroke-miterlimit="10"/></g><g transform="translate(-14,-6) scale(1,1)"><g><path fill="none" stroke="none"/><text fill="#000000" stroke="none" font-family="Arial" font-size="13px" font-style="normal" font-weight="bold" text-decoration="none" x="640.388671875" y="264">Редактировать связи</text></g></g><g transform="translate(-14,-6) scale(1,1)"><path fill="#C0C0C0" stroke="none" d="M 167 376 C 167 366.6111584 212.4430928 359 268.5 359 C 324.5569072 359 370 366.6111584 370 376 C 370 385.3888416 324.5569072 393 268.5 393 C 212.4430928 393 167 385.3888416 167 376 Z" opacity="0.2"/></g><g transform="translate(-14,-6) scale(1,1)"><path fill="#ffffff" stroke="none" d="M 160 369 C 160 359.6111584 205.4430928 352 261.5 352 C 317.5569072 352 363 359.6111584 363 369 C 363 378.3888416 317.5569072 386 261.5 386 C 205.4430928 386 160 378.3888416 160 369 Z"/></g><g transform="translate(-14,-6) scale(1,1)"><path fill="none" stroke="#000000" d="M 160 369 C 160 359.6111584 205.4430928 352 261.5 352 C 317.5569072 352 363 359.6111584 363 369 C 363 378.3888416 317.5569072 386 261.5 386 C 205.4430928 386 160 378.3888416 160 369 Z" stroke-miterlimit="10"/></g><g transform="translate(-14,-6) scale(1,1)"><g><path fill="none" stroke="none"/><text fill="#000000" stroke="none" font-family="Arial" font-size="13px" font-style="normal" font-weight="bold" text-decoration="none" x="199.52783203125" y="376">Редактировать узлы</text></g></g><g transform="translate(-14,-6) scale(1,1)"><path fill="none" stroke="#000000" d="M 549 187 L 290 351" stroke-miterlimit="10" stroke-dasharray="3"/></g><g transform="translate(-14,-6) scale(1,1)"><path fill="none" stroke="#000000" d="M 296.3341364997151 342.0067405906992 L 290 351 L 300.83810558519605 349.1197161586235" stroke-miterlimit="10"/></g><g transform="translate(-14,-6) scale(1,1)"><g><path fill="none" stroke="none"/><text fill="#000000" stroke="none" font-family="Arial" font-size="13px" font-style="normal" font-weight="normal" text-decoration="none" x="448" y="269">«include»</text></g></g><g transform="translate(-14,-6) scale(1,1)"><path fill="none" stroke="#000000" d="M 613 187 L 681 239" stroke-miterlimit="10" stroke-dasharray="3"/></g><g transform="translate(-14,-6) scale(1,1)"><path fill="none" stroke="#000000" d="M 670.3701276091327 236.17054546707706 L 681 239 L 675.4842716365589 229.4828186619813" stroke-miterlimit="10"/></g><g transform="translate(-14,-6) scale(1,1)"><g><path fill="none" stroke="none"/><text fill="#000000" stroke="none" font-family="Arial" font-size="13px" font-style="normal" font-weight="normal" text-decoration="none" x="648" y="205">«include»</text></g></g><g transform="translate(-14,-6) scale(1,1)"><path fill="#C0C0C0" stroke="none" d="M 215 496 C 215 486.6111584 248.1309248 479 289 479 C 329.8690752 479 363 486.6111584 363 496 C 363 505.3888416 329.8690752 513 289 513 C 248.1309248 513 215 505.3888416 215 496 Z" opacity="0.2"/></g><g transform="translate(-14,-6) scale(1,1)"><path fill="#ffffff" stroke="none" d="M 208 489 C 208 479.6111584 241.1309248 472 282 472 C 322.8690752 472 356 479.6111584 356 489 C 356 498.3888416 322.8690752 506 282 506 C 241.1309248 506 208 498.3888416 208 489 Z"/></g><g transform="translate(-14,-6) scale(1,1)"><path fill="none" stroke="#000000" d="M 208 489 C 208 479.6111584 241.1309248 472 282 472 C 322.8690752 472 356 479.6111584 356 489 C 356 498.3888416 322.8690752 506 282 506 C 241.1309248 506 208 498.3888416 208 489 Z" stroke-miterlimit="10"/></g><g transform="translate(-14,-6) scale(1,1)"><g><path fill="none" stroke="none"/><text fill="#000000" stroke="none" font-family="Arial" font-size="13px" font-style="normal" font-weight="bold" text-decoration="none" x="237.753662109375" y="496">Добавить узел</text></g></g><g transform="translate(-14,-6) scale(1,1)"><path fill="#C0C0C0" stroke="none" d="M 543 416 C 543 406.6111584 573.4446336 399 611 399 C 648.5553664 399 679 406.6111584 679 416 C 679 425.3888416 648.5553664 433 611 433 C 573.4446336 433 543 425.3888416 543 416 Z" opacity="0.2"/></g><g transform="translate(-14,-6) scale(1,1)"><path fill="#ffffff" stroke="none" d="M 536 409 C 536 399.6111584 566.4446336 392 604 392 C 641.5553664 392 672 399.6111584 672 409 C 672 418.3888416 641.5553664 426 604 426 C 566.4446336 426 536 418.3888416 536 409 Z"/></g><g transform="translate(-14,-6) scale(1,1)"><path fill="none" stroke="#000000" d="M 536 409 C 536 399.6111584 566.4446336 392 604 392 C 641.5553664 392 672 399.6111584 672 409 C 672 418.3888416 641.5553664 426 604 426 C 566.4446336 426 536 418.3888416 536 409 Z" stroke-miterlimit="10"/></g><g transform="translate(-14,-6) scale(1,1)"><g><path fill="none" stroke="none"/><text fill="#000000" stroke="none" font-family="Arial" font-size="13px" font-style="normal" font-weight="bold" text-decoration="none" x="563.232177734375" y="416">Удалить узел</text></g></g><g transform="translate(-14,-6) scale(1,1)"><path fill="#C0C0C0" stroke="none" d="M 399 480 C 399 470.6111584 454.5166848 463 523 463 C 591.4833152 463 647 470.6111584 647 480 C 647 489.3888416 591.4833152 497 523 497 C 454.5166848 497 399 489.3888416 399 480 Z" opacity="0.2"/></g><g transform="translate(-14,-6) scale(1,1)"><path fill="#ffffff" stroke="none" d="M 392 473 C 392 463.6111584 447.5166848 456 516 456 C 584.4833152 456 640 463.6111584 640 473 C 640 482.3888416 584.4833152 490 516 490 C 447.5166848 490 392 482.3888416 392 473 Z"/></g><g transform="translate(-14,-6) scale(1,1)"><path fill="none" stroke="#000000" d="M 392 473 C 392 463.6111584 447.5166848 456 516 456 C 584.4833152 456 640 463.6111584 640 473 C 640 482.3888416 584.4833152 490 516 490 C 447.5166848 490 392 482.3888416 392 473 Z" stroke-miterlimit="10"/></g><g transform="translate(-14,-6) scale(1,1)"><g><path fill="none" stroke="none"/><text fill="#000000" stroke="none" font-family="Arial" font-size="13px" font-style="normal" font-weight="bold" text-decoration="none" x="438.663330078125" y="480">Изменить настройки узла</text></g></g><g transform="translate(-14,-6) scale(1,1)"><path fill="#C0C0C0" stroke="none" d="M 551 360 C 551 350.6111584 586.5933583999999 343 630.5 343 C 674.4066416000001 343 710 350.6111584 710 360 C 710 369.3888416 674.4066416000001 377 630.5 377 C 586.5933583999999 377 551 369.3888416 551 360 Z" opacity="0.2"/></g><g transform="translate(-14,-6) scale(1,1)"><path fill="#ffffff" stroke="none" d="M 544 353 C 544 343.6111584 579.5933583999999 336 623.5 336 C 667.4066416000001 336 703 343.6111584 703 353 C 703 362.3888416 667.4066416000001 370 623.5 370 C 579.5933583999999 370 544 362.3888416 544 353 Z"/></g><g transform="translate(-14,-6) scale(1,1)"><path fill="none" stroke="#000000" d="M 544 353 C 544 343.6111584 579.5933583999999 336 623.5 336 C 667.4066416000001 336 703 343.6111584 703 353 C 703 362.3888416 667.4066416000001 370 623.5 370 C 579.5933583999999 370 544 362.3888416 544 353 Z" stroke-miterlimit="10"/></g><g transform="translate(-14,-6) scale(1,1)"><g><path fill="none" stroke="none"/><text fill="#000000" stroke="none" font-family="Arial" font-size="13px" font-style="normal" font-weight="bold" text-decoration="none" x="576.302001953125" y="360">Добавить связь</text></g></g><g transform="translate(-14,-6) scale(1,1)"><path fill="#C0C0C0" stroke="none" d="M 735 360 C 735 350.6111584 767.9070672 343 808.5 343 C 849.0929328 343 882 350.6111584 882 360 C 882 369.3888416 849.0929328 377 808.5 377 C 767.9070672 377 735 369.3888416 735 360 Z" opacity="0.2"/></g><g transform="translate(-14,-6) scale(1,1)"><path fill="#ffffff" stroke="none" d="M 728 353 C 728 343.6111584 760.9070672 336 801.5 336 C 842.0929328 336 875 343.6111584 875 353 C 875 362.3888416 842.0929328 370 801.5 370 C 760.9070672 370 728 362.3888416 728 353 Z"/></g><g transform="translate(-14,-6) scale(1,1)"><path fill="none" stroke="#000000" d="M 728 353 C 728 343.6111584 760.9070672 336 801.5 336 C 842.0929328 336 875 343.6111584 875 353 C 875 362.3888416 842.0929328 370 801.5 370 C 760.9070672 370 728 362.3888416 728 353 Z" stroke-miterlimit="10"/></g><g transform="translate(-14,-6) scale(1,1)"><g><path fill="none" stroke="none"/><text fill="#000000" stroke="none" font-family="Arial" font-size="13px" font-style="normal" font-weight="bold" text-decoration="none" x="757.780517578125" y="360">Удалить связь</text></g></g><g transform="translate(-14,-6) scale(1,1)"><path fill="none" stroke="#000000" d="M 279 471 L 264 387" stroke-miterlimit="10" stroke-dasharray="3"/></g><g transform="translate(-14,-6) scale(1,1)"><path fill="none" stroke="#000000" d="M 269.9304684605383 396.2644235567336 L 264 387 L 261.6425377433088 397.7444111848103" stroke-miterlimit="10"/></g><g transform="translate(-14,-6) scale(1,1)"><g><path fill="none" stroke="none"/><text fill="#000000" stroke="none" font-family="Arial" font-size="13px" font-style="normal" font-weight="normal" text-decoration="none" x="271" y="420">«extend»</text></g></g><g transform="translate(-14,-6) scale(1,1)"><path fill="none" stroke="#000000" d="M 472 455 L 305 387" stroke-miterlimit="10" stroke-dasharray="3"/></g><g transform="translate(-14,-6) scale(1,1)"><path fill="none" stroke="#000000" d="M 315.99980110287345 386.9338509469117 L 305 387 L 312.82480839555285 394.7312595075373" stroke-miterlimit="10"/></g><g transform="translate(-14,-6) scale(1,1)"><g><path fill="none" stroke="none"/><text fill="#000000" stroke="none" font-family="Arial" font-size="13px" font-style="normal" font-weight="normal" text-decoration="none" x="385" y="415">«extend»</text></g></g><g transform="translate(-14,-6) scale(1,1)"><path fill="none" stroke="#000000" d="M 535 401 L 364 381" stroke-miterlimit="10" stroke-dasharray="3"/></g><g transform="translate(-14,-6) scale(1,1)"><path fill="none" stroke="#000000" d="M 374.5828781471883 377.99955167987116 L 364 381 L 373.60486225611066 386.3615875485849" stroke-miterlimit="10"/></g><g transform="translate(-14,-6) scale(1,1)"><g><path fill="none" stroke="none"/><text fill="#000000" stroke="none" font-family="Arial" font-size="13px" font-style="normal" font-weight="normal" text-decoration="none" x="427" y="385">«extend»</text></g></g><g transform="translate(-14,-6) scale(1,1)"><path fill="none" stroke="#000000" d="M 638 335 L 689 275" stroke-miterlimit="10" stroke-dasharray="3"/></g><g transform="translate(-14,-6) scale(1,1)"><path fill="none" stroke="#000000" d="M 685.6255567716302 285.4696290716772 L 689 275 L 679.2107625973999 280.01705402358147" stroke-miterlimit="10"/></g><g transform="translate(-14,-6) scale(1,1)"><g><path fill="none" stroke="none"/><text fill="#000000" stroke="none" font-family="Arial" font-size="13px" font-style="normal" font-weight="normal" text-decoration="none" x="607" y="301">«extend»</text></g></g><g transform="translate(-14,-6) scale(1,1)"><path fill="none" stroke="#000000" d="M 783 335 L 722 275" stroke-miterlimit="10" stroke-dasharray="3"/></g><g transform="translate(-14,-6) scale(1,1)"><path fill="none" stroke="#000000" d="M 732.1971160281398 279.1253878252418 L 722 275 L 726.2933601857908 285.1275395982966" stroke-miterlimit="10"/></g><g transform="translate(-14,-6) scale(1,1)"><g><path fill="none" stroke="none"/><text fill="#000000" stroke="none" font-family="Arial" font-size="13px" font-style="normal" font-weight="normal" text-decoration="none" x="751" y="300">«extend»</text></g></g><g transform="translate(-14,-6) scale(1,1)"><path fill="#C0C0C0" stroke="none" d="M 31 640 C 31 630.6111584 97.26184959999999 623 179 623 C 260.7381504 623 327 630.6111584 327 640 C 327 649.3888416 260.7381504 657 179 657 C 97.26184959999999 657 31 649.3888416 31 640 Z" opacity="0.2"/></g><g transform="translate(-14,-6) scale(1,1)"><path fill="#ffffff" stroke="none" d="M 24 633 C 24 623.6111584 90.26184959999999 616 172 616 C 253.7381504 616 320 623.6111584 320 633 C 320 642.3888416 253.7381504 650 172 650 C 90.26184959999999 650 24 642.3888416 24 633 Z"/></g><g transform="translate(-14,-6) scale(1,1)"><path fill="none" stroke="#000000" d="M 24 633 C 24 623.6111584 90.26184959999999 616 172 616 C 253.7381504 616 320 623.6111584 320 633 C 320 642.3888416 253.7381504 650 172 650 C 90.26184959999999 650 24 642.3888416 24 633 Z" stroke-miterlimit="10"/></g><g transform="translate(-14,-6) scale(1,1)"><g><path fill="none" stroke="none"/><text fill="#000000" stroke="none" font-family="Arial" font-size="13px" font-style="normal" font-weight="bold" text-decoration="none" x="79.124267578125" y="640">Добавить узел инициализации</text></g></g><g transform="translate(-14,-6) scale(1,1)"><path fill="#C0C0C0" stroke="none" d="M 247 696 C 247 686.6111584 323.33544159999997 679 417.5 679 C 511.66455840000003 679 588 686.6111584 588 696 C 588 705.3888416 511.66455840000003 713 417.5 713 C 323.33544159999997 713 247 705.3888416 247 696 Z" opacity="0.2"/></g><g transform="translate(-14,-6) scale(1,1)"><path fill="#ffffff" stroke="none" d="M 240 689 C 240 679.6111584 316.33544159999997 672 410.5 672 C 504.66455840000003 672 581 679.6111584 581 689 C 581 698.3888416 504.66455840000003 706 410.5 706 C 316.33544159999997 706 240 698.3888416 240 689 Z"/></g><g transform="translate(-14,-6) scale(1,1)"><path fill="none" stroke="#000000" d="M 240 689 C 240 679.6111584 316.33544159999997 672 410.5 672 C 504.66455840000003 672 581 679.6111584 581 689 C 581 698.3888416 504.66455840000003 706 410.5 706 C 316.33544159999997 706 240 698.3888416 240 689 Z" stroke-miterlimit="10"/></g><g transform="translate(-14,-6) scale(1,1)"><g><path fill="none" stroke="none"/><text fill="#000000" stroke="none" font-family="Arial" font-size="13px" font-style="normal" font-weight="bold" text-decoration="none" x="302.69140625" y="696">Добавить узел запуска приложения</text></g></g><g transform="translate(-14,-6) scale(1,1)"><path fill="#C0C0C0" stroke="none" d="M 471 640 C 471 630.6111584 517.3385232 623 574.5 623 C 631.6614768 623 678 630.6111584 678 640 C 678 649.3888416 631.6614768 657 574.5 657 C 517.3385232 657 471 649.3888416 471 640 Z" opacity="0.2"/></g><g transform="translate(-14,-6) scale(1,1)"><path fill="#ffffff" stroke="none" d="M 464 633 C 464 623.6111584 510.3385232 616 567.5 616 C 624.6614768 616 671 623.6111584 671 633 C 671 642.3888416 624.6614768 650 567.5 650 C 510.3385232 650 464 642.3888416 464 633 Z"/></g><g transform="translate(-14,-6) scale(1,1)"><path fill="none" stroke="#000000" d="M 464 633 C 464 623.6111584 510.3385232 616 567.5 616 C 624.6614768 616 671 623.6111584 671 633 C 671 642.3888416 624.6614768 650 567.5 650 C 510.3385232 650 464 642.3888416 464 633 Z" stroke-miterlimit="10"/></g><g transform="translate(-14,-6) scale(1,1)"><g><path fill="none" stroke="none"/><text fill="#000000" stroke="none" font-family="Arial" font-size="13px" font-style="normal" font-weight="bold" text-decoration="none" x="503.842529296875" y="640">Добавить узел цикла</text></g></g><g transform="translate(-14,-6) scale(1,1)"><path fill="#C0C0C0" stroke="none" d="M 591 584 C 591 574.6111584 646.7405424 567 715.5 567 C 784.2594576 567 840 574.6111584 840 584 C 840 593.3888416 784.2594576 601 715.5 601 C 646.7405424 601 591 593.3888416 591 584 Z" opacity="0.2"/></g><g transform="translate(-14,-6) scale(1,1)"><path fill="#ffffff" stroke="none" d="M 584 577 C 584 567.6111584 639.7405424 560 708.5 560 C 777.2594576 560 833 567.6111584 833 577 C 833 586.3888416 777.2594576 594 708.5 594 C 639.7405424 594 584 586.3888416 584 577 Z"/></g><g transform="translate(-14,-6) scale(1,1)"><path fill="none" stroke="#000000" d="M 584 577 C 584 567.6111584 639.7405424 560 708.5 560 C 777.2594576 560 833 567.6111584 833 577 C 833 586.3888416 777.2594576 594 708.5 594 C 639.7405424 594 584 586.3888416 584 577 Z" stroke-miterlimit="10"/></g><g transform="translate(-14,-6) scale(1,1)"><g><path fill="none" stroke="none"/><text fill="#000000" stroke="none" font-family="Arial" font-size="13px" font-style="normal" font-weight="bold" text-decoration="none" x="630.74755859375" y="584">Добавить узел алгоритма</text></g></g><g transform="translate(-14,-6) scale(1,1)"><path fill="none" stroke="#000000" d="M 186 615 L 268 507" stroke-miterlimit="10" stroke-dasharray="3"/></g><g transform="translate(-14,-6) scale(1,1)"><path fill="none" stroke="#000000" d="M 265.2071915189209 517.6395592384278 L 268 507 L 258.50188169814544 512.5484906708019" stroke-miterlimit="10"/></g><g transform="translate(-14,-6) scale(1,1)"><g><path fill="none" stroke="none"/><text fill="#000000" stroke="none" font-family="Arial" font-size="13px" font-style="normal" font-weight="normal" text-decoration="none" x="232" y="572">«extend»</text></g></g><g transform="translate(-14,-6) scale(1,1)"><path fill="none" stroke="#000000" d="M 398 671 L 294 507" stroke-miterlimit="10" stroke-dasharray="3"/></g><g transform="translate(-14,-6) scale(1,1)"><path fill="none" stroke="#000000" d="M 302.997513332402 513.3280924324198 L 294 507 L 295.8875656202185 517.8368397620972" stroke-miterlimit="10"/></g><g transform="translate(-14,-6) scale(1,1)"><g><path fill="none" stroke="none"/><text fill="#000000" stroke="none" font-family="Arial" font-size="13px" font-style="normal" font-weight="normal" text-decoration="none" x="351" y="588">«extend»</text></g></g><g transform="translate(-14,-6) scale(1,1)"><path fill="none" stroke="#000000" d="M 531 615 L 318 507" stroke-miterlimit="10" stroke-dasharray="3"/></g><g transform="translate(-14,-6) scale(1,1)"><path fill="none" stroke="#000000" d="M 328.9677724355489 507.8414082255443 L 318 507 L 325.16042080165903 515.350351725716" stroke-miterlimit="10"/></g><g transform="translate(-14,-6) scale(1,1)"><g><path fill="none" stroke="none"/><text fill="#000000" stroke="none" font-family="Arial" font-size="13px" font-style="normal" font-weight="normal" text-decoration="none" x="439" y="564">«extend»</text></g></g><g transform="translate(-14,-6) scale(1,1)"><path fill="none" stroke="#000000" d="M 621 559 L 357 504" stroke-miterlimit="10" stroke-dasharray="3"/></g><g transform="translate(-14,-6) scale(1,1)"><path fill="none" stroke="#000000" d="M 367.80760875187315 501.9516853106921 L 357 504 L 366.09051064367424 510.193756230047" stroke-miterlimit="10"/></g><g transform="translate(-14,-6) scale(1,1)"><g><path fill="none" stroke="none"/><text fill="#000000" stroke="none" font-family="Arial" font-size="13px" font-style="normal" font-weight="normal" text-decoration="none" x="470" y="525">«extend»</text></g></g></g></svg>